<?xml version="1.0" encoding="UTF-8"?>
<svg id="Ebene_1" xmlns="http://www.w3.org/2000/svg" version="1.1" viewBox="0 0 512 164.8">
  <!-- Generator: Adobe Illustrator 30.1.0, SVG Export Plug-In . SVG Version: 2.1.1 Build 136)  -->
  <defs>
    <style>
      .st0 {
        fill: #1a1a18;
      }
    </style>
  </defs>
  <g>
    <g>
      <g>
        <path class="st0" d="M88,65.1c-2.3,0-4.7-1.5-4.7-5.8v-1.9c0-2.6-1.6-3.5-4.2-3.5h-1.9v9.9c0,0,0,.1.2.1h2.5s0,.6,0,.6h-9.1c0,0,0-.6,0-.6h2.5c0,0,.1,0,.1-.1v-19.6c0,0,0-.1-.1-.1h-2.5c0,0,0-.6,0-.6h8.7c4.2,0,6.7,2.3,6.7,5.2s-2.5,4.9-5.4,4.9c4.3,0,6.3,2.6,6.3,5.8v2.7c0,1.5.7,2.2,1.7,2.2s1.1-.1,1.5-.6c0,0,.4.4.4.4-.6.6-1.4,1-2.6,1ZM78.8,44.1h-1.5c-.1,0-.2,0-.2.1v9.1h1.9c2.8,0,3.4-.7,3.4-4.5s-1-4.7-3.7-4.7Z"/>
        <path class="st0" d="M93.3,64.6s0-.6,0-.6h2.5c0,0,.1,0,.1-.1v-19.6c0,0,0-.1-.1-.1h-2.5s0-.6,0-.6h9.1c0,0,0,.6,0,.6h-2.5c-.1,0-.2,0-.2.1v19.6c0,0,0,.1.2.1h2.5c0,0,0,.6,0,.6h-9.1Z"/>
        <path class="st0" d="M123.3,65c0-.4-.5-.9-1.3-.9-1.3,0-3.3,1-4.9,1-5.3,0-9.3-5.1-9.3-11s3.8-11,9.1-11,3.1.8,4.4.8,1.4-.4,1.4-.7c0,0,.5,0,.5,0v6.9c0,0-.5,0-.5,0,0-2.9-3-6.4-5.8-6.4s-2.3.3-3.1,1.1c-1.3,1.4-2,4.3-2,9.4s.6,8,2,9.3c.9.9,2,1.1,3.3,1.1,3.4,0,6.2-3.3,6.2-7.2s.6,0,.6,0v7.7s-.5,0-.6,0Z"/>
        <path class="st0" d="M139.9,64.6c0,0,0-.6,0-.6h2.2c0,0,.1,0,.1-.1v-9.9h-7v9.9c0,0,0,.1.2.1h2.2c0,0,0,.6,0,.6h-8.8s0-.6,0-.6h2.5c0,0,.1,0,.1-.1v-19.6c0,0,0-.1-.1-.1h-2.5s0-.6,0-.6h8.8c0,0,0,.6,0,.6h-2.2c-.1,0-.2,0-.2.1v9.1h7v-9.1c0,0,0-.1-.1-.1h-2.2c0,0,0-.6,0-.6h8.8c0,0,0,.6,0,.6h-2.5c-.1,0-.1,0-.1.1v19.6c0,0,0,.1.1.1h2.5c0,0,0,.6,0,.6h-8.8Z"/>
        <path class="st0" d="M162,64.6c0,0,0-.6,0-.6h2.5c0,0,.1,0,.1,0l-2-6.2h-6.4l-1.7,5c-.3,1.1-.4,1.2-.2,1.2h2.4c0,0,0,.6,0,.6h-5.6c0,0,0-.6,0-.6h2.2c.3,0,.3,0,.7-1.2l6.7-19.6c0,0,.6,0,.6,0l7.4,20.8s0,0,.2,0h2.5c0,0,0,.6,0,.6h-9.3ZM159.4,48.1l-3.1,9.1h6.1l-3-9.1Z"/>
        <path class="st0" d="M190.4,65.1c-2.3,0-4.8-1.5-4.8-5.8v-1.9c0-2.6-1.6-3.5-4.2-3.5h-1.9v9.9c0,0,0,.1.2.1h2.5s0,.6,0,.6h-9.1c0,0,0-.6,0-.6h2.5c0,0,.1,0,.1-.1v-19.6c0,0,0-.1-.1-.1h-2.5c0,0,0-.6,0-.6h8.7c4.2,0,6.7,2.3,6.7,5.2s-2.5,4.9-5.4,4.9c4.3,0,6.3,2.6,6.3,5.8v2.7c0,1.5.7,2.2,1.7,2.2s1.1-.1,1.5-.6c0,0,.4.4.4.4-.6.6-1.4,1-2.6,1ZM181.2,44.1h-1.5c-.1,0-.2,0-.2.1v9.1h1.9c2.8,0,3.4-.7,3.4-4.5s-1-4.7-3.7-4.7Z"/>
        <path class="st0" d="M204.5,64.6h-9s0-.6,0-.6h2.5c0,0,.1,0,.1-.1v-19.6c0,0,0-.1-.1-.1h-2.5s0-.6,0-.6h9c5,0,9.1,4.7,9.1,10.5s-4.1,10.5-9.1,10.5ZM207.6,45.2c-.8-.8-1.9-1-3.1-1h-2.4c-.1,0-.2,0-.2.1v19.7c0,0,0,0,.2,0h2.4c1.2,0,2.3-.2,3.1-1,1.4-1.3,1.9-3.4,1.9-8.9s-.5-7.6-1.9-8.9Z"/>
        <path class="st0" d="M253.6,44.1c-.2,0-.4.1-.7,1.2l-6.3,19.7c0,0-.6,0-.6,0l-5.3-15.5-5,15.5c0,.1-.5,0-.6,0l-7.7-20.8c0,0-.1-.1-.2-.1h-2.6c0,0,0-.6,0-.6h9.4c0,0,0,.6,0,.6h-2.4c-.1,0-.1,0-.1.1l5.6,15.2,3.4-10.7-1.5-4.5c0,0-.2-.1-.2-.1h-2.6c0,0,0-.6,0-.6h9.7s0,.6,0,.6h-2.8c-.1,0-.1,0-.1.1l5.2,15.3,4.5-14.3c.3-1,.3-1.1.1-1.1h-2.4c0,0,0-.6,0-.6h5.9c0,0,0,.6,0,.6h-2.4Z"/>
        <path class="st0" d="M266.4,64.6c0,0,0-.6,0-.6h2.5c0,0,.1,0,.1,0l-2-6.2h-6.4l-1.7,5c-.3,1.1-.4,1.2-.2,1.2h2.4c0,0,0,.6,0,.6h-5.6c0,0,0-.6,0-.6h2.2c.3,0,.3,0,.7-1.2l6.7-19.6c0,0,.6,0,.6,0l7.4,20.8s0,0,.2,0h2.5c0,0,0,.6,0,.6h-9.3ZM263.8,48.1l-3.1,9.1h6.1l-3-9.1Z"/>
        <path class="st0" d="M294.7,56.6c-.1,0-.2,0-.2,0v8c0,0-.6,0-.6,0,0-.7-.2-1.1-1-1.1-1.3,0-2.5,1.5-5.7,1.5-5.5,0-8.8-5.3-8.8-11s3.8-11,9.1-11,2.7.8,3.6.8,1.3-.4,1.4-.7c0,0,.6,0,.6,0v6.8c0,0-.6,0-.6,0,0-2.9-2.1-6.3-5-6.3s-2.3.3-3.1,1.1c-1.4,1.4-1.9,4.3-1.9,9.4s.2,8,1.5,9.3c.8.9,1.9,1.1,3.1,1.1,2.6,0,3.5-1,3.5-2.7v-5.1c0,0,0,0-.2,0h-2.5c0,0,0-.6,0-.6h9c0,0,0,.6,0,.6h-2.5Z"/>
        <path class="st0" d="M316.9,44.1c-.1,0-.2,0-.2.1v20.7c0,0-.5.1-.6,0l-12.7-20.4v19.3c0,0,0,.1.1.1h2.5c0,0,0,.6,0,.6h-5.9c0,0,0-.6,0-.6h2.5c.1,0,.1,0,.1-.1v-19.6c0,0,0-.1-.1-.1h-2.5c0,0,0-.6,0-.6h6.6c.2,0,.4.1.6.5l8.7,14.1v-14c0,0,0-.1-.2-.1h-2.5c-.1,0-.1-.6,0-.6h5.8s0,.6,0,.6h-2.5Z"/>
        <path class="st0" d="M340.1,64.6h-16.2c0,0,0-.6,0-.6h2.5c0,0,.2,0,.2-.1v-19.6c0,0,0-.1-.2-.1h-2.5c0,0,0-.6,0-.6h14.8c.1,0,.1,0,.1,0v6.1s-.6,0-.6,0c0-2.8-1.5-5.6-5-5.6h-2.8c-.2,0-.2,0-.2.1v9.2h.7c2.3,0,3.5-1.7,3.5-3.7s.5,0,.5,0v8c0,0-.5,0-.5,0,0-2-1.2-3.7-3.5-3.7h-.7v9.8c0,0,0,.1.2.1h2.8c4.6,0,6.4-3.1,6.4-6.1s.5,0,.5,0v6.6c0,0,0,0,0,0Z"/>
        <path class="st0" d="M361.9,65.1c-2.3,0-4.7-1.5-4.7-5.8v-1.9c0-2.6-1.6-3.5-4.2-3.5h-1.9v9.9c0,0,0,.1.2.1h2.5s0,.6,0,.6h-9.1c0,0,0-.6,0-.6h2.5c0,0,.1,0,.1-.1v-19.6c0,0,0-.1-.1-.1h-2.5c0,0,0-.6,0-.6h8.7c4.2,0,6.7,2.3,6.7,5.2s-2.5,4.9-5.4,4.9c4.3,0,6.3,2.6,6.3,5.8v2.7c0,1.5.7,2.2,1.7,2.2s1.1-.1,1.5-.6c0,0,.4.4.4.4-.6.6-1.4,1-2.6,1ZM352.7,44.1h-1.5c-.1,0-.2,0-.2.1v9.1h1.9c2.8,0,3.4-.7,3.4-4.5s-1-4.7-3.7-4.7Z"/>
        <path class="st0" d="M389.1,64.6c0,0,0-.6,0-.6h2.5c0,0,.1,0,.1-.1v-18.5l-6.2,19.6c0,0-.5,0-.5,0l-7.1-19.9v18.8c0,0,0,.1.1.1h2.5s0,.6,0,.6h-5.9c0,0,0-.6,0-.6h2.5c.1,0,.1,0,.1-.1v-19.6c0,0,0-.1-.1-.1h-2.5c0,0,0-.6,0-.6h6.3c.2,0,.3.2.4.5l5.3,15,4.8-15c0-.3.3-.5.4-.5h6.2s0,.6,0,.6h-2.5c0,0-.1,0-.1.1v19.6c0,0,0,.1.1.1h2.5s0,.6,0,.6h-9Z"/>
        <path class="st0" d="M419.1,44.1c0,0-.1,0-.1.1v14.1c0,4.1-2,6.7-6.8,6.7s-7.2-2-7.2-6.5v-14.4c0,0,0-.1-.2-.1h-2.5c0,0,0-.6,0-.6h9c0,0,0,.6,0,.6h-2.5c-.1,0-.2,0-.2.1v14.4c0,3.7,1.2,5.6,4.2,5.6s5.5-2.4,5.5-5.9v-14.1c0,0,0-.1-.2-.1h-2.4c0,0,0-.6,0-.6h5.8c0,0,0,.6,0,.6h-2.5Z"/>
        <path class="st0" d="M432.5,65.1c-2.1,0-3.6-1.2-4.6-1.2s-1.5.6-1.5,1.1c0,0-.5,0-.5,0v-7.1c0,0,.5,0,.5,0,0,2.4,2.5,6.6,6.1,6.6s4.7-2,4.7-3.9c0-2.9-1.7-3.4-6.1-5.1-2.6-1-4.7-2.5-4.7-6s2.6-6.5,5.4-6.5,2.1.8,3.4.8,1.1-.4,1.2-.7c0,0,.5,0,.5,0v5.4c0,0-.5,0-.5,0,0-2.8-2.1-4.9-4.6-4.9s-3.7,1.6-3.7,3.6,1.5,3.2,5.1,4.5c3.6,1.4,5.9,2.8,5.9,6.4s-2.2,7-6.6,7Z"/>
        <path class="st0" d="M460.2,64.6h-16.2c0,0,0-.6,0-.6h2.5c0,0,.1,0,.1-.1v-19.6c0,0,0-.1-.1-.1h-2.5c0,0,0-.6,0-.6h14.8c.1,0,.1,0,.1,0v6.1s-.6,0-.6,0c0-2.8-1.5-5.6-5-5.6h-2.8c-.2,0-.2,0-.2.1v9.2h.7c2.3,0,3.5-1.7,3.5-3.7s.5,0,.5,0v8c0,0-.5,0-.5,0,0-2-1.2-3.7-3.5-3.7h-.7v9.8c0,0,0,.1.2.1h2.9c4.6,0,6.4-3.1,6.4-6.1s.5,0,.5,0v6.6c0,0,0,0,0,0Z"/>
        <path class="st0" d="M481.3,44.1c0,0-.1,0-.1.1v14.1c0,4.1-2,6.7-6.8,6.7s-7.2-2-7.2-6.5v-14.4c0,0,0-.1-.2-.1h-2.5c0,0,0-.6,0-.6h9c0,0,0,.6,0,.6h-2.5c-.1,0-.2,0-.2.1v14.4c0,3.7,1.2,5.6,4.2,5.6s5.5-2.4,5.5-5.9v-14.1c0,0,0-.1-.2-.1h-2.4c0,0,0-.6,0-.6h5.8c0,0,0,.6,0,.6h-2.5Z"/>
        <path class="st0" d="M501.9,64.6c0,0,0-.6,0-.6h2.5c0,0,.1,0,.1-.1v-18.5l-6.2,19.6c0,0-.5,0-.5,0l-7.1-19.9v18.8c0,0,0,.1.1.1h2.5s0,.6,0,.6h-5.9c0,0,0-.6,0-.6h2.5c.1,0,.1,0,.1-.1v-19.6c0,0,0-.1-.1-.1h-2.5c0,0,0-.6,0-.6h6.3c.2,0,.3.2.4.5l5.3,15,4.8-15c0-.3.3-.5.4-.5h6.2s0,.6,0,.6h-2.5c0,0-.1,0-.1.1v19.6c0,0,0,.1.1.1h2.5s0,.6,0,.6h-9Z"/>
      </g>
      <g>
        <path class="st0" d="M350.2,101.4h-9.5c0,0,0-.6,0-.6h2.5c0,0,.1,0,.1-.1v-19.6c0,0,0-.1-.1-.1h-2.5c0,0,0-.6,0-.6h8.2c3.6,0,6.5,1.6,6.5,4.9s-2.7,5-5,5c3.4,0,6.3,2.1,6.3,5.6s-2.2,5.6-6.6,5.6ZM348.4,81h-1.1c-.2,0-.2,0-.2.1v8.8h2.2c2,0,2.7-.9,2.7-4.5s-.9-4.4-3.6-4.4ZM349,90.5h-2v10.2c0,0,0,.1.2.1h2.1c2.6,0,3.7-.9,3.7-4.8s-1.2-5.6-4-5.6Z"/>
        <path class="st0" d="M371.1,101.4c0,0,0-.6,0-.6h2.5c0,0,.1,0,.1,0l-2-6.2h-6.4l-1.7,5c-.3,1.1-.4,1.2-.2,1.2h2.4c0,0,0,.6,0,.6h-5.6c0,0,0-.6,0-.6h2.2c.3,0,.3,0,.7-1.2l6.7-19.6c0,0,.6,0,.6,0l7.4,20.8s0,0,.2,0h2.5c0,0,0,.6,0,.6h-9.3ZM368.5,84.9l-3.1,9.1h6.1l-3-9.1Z"/>
        <path class="st0" d="M396.9,81c-.2,0-.3.1-1.2,2.1l-4,9.2v8.4c0,0,0,.1.2.1h2.5c0,0,0,.6,0,.6h-9c0,0,0-.6,0-.6h2.5c.1,0,.1,0,.1-.1v-8.5l-5.4-11.2c0,0-.1-.1-.2-.1h-2.8c0,0,0-.6,0-.6h9.9s0,.6,0,.6h-2.8c-.1,0,0,0-.1.1l5,10.2,4-9.1c.5-1.2.5-1.2.4-1.2h-2.6c0,0,0-.6,0-.6h5.9c0,0,0,.6,0,.6h-2.3Z"/>
        <path class="st0" d="M420,101.9c-2.3,0-4.8-1.5-4.8-5.8v-1.9c0-2.6-1.6-3.5-4.2-3.5h-1.9v9.9c0,0,0,.1.2.1h2.5s0,.6,0,.6h-9.1c0,0,0-.6,0-.6h2.5c0,0,.1,0,.1-.1v-19.6c0,0,0-.1-.1-.1h-2.5c0,0,0-.6,0-.6h8.7c4.2,0,6.7,2.3,6.7,5.2s-2.5,4.9-5.4,4.9c4.3,0,6.3,2.6,6.3,5.8v2.7c0,1.5.7,2.2,1.7,2.2s1.1-.1,1.5-.6c0,0,.4.4.4.4-.6.6-1.4,1-2.6,1ZM410.8,81h-1.5c-.1,0-.2,0-.2.1v9.1h1.9c2.8,0,3.4-.7,3.4-4.5s-1-4.7-3.7-4.7Z"/>
        <path class="st0" d="M441.6,101.4h-16.2c0,0,0-.6,0-.6h2.5c0,0,.1,0,.1-.1v-19.6c0,0,0-.1-.1-.1h-2.5c0,0,0-.6,0-.6h14.8c.1,0,.1,0,.1,0v6.1s-.6,0-.6,0c0-2.8-1.5-5.6-5-5.6h-2.8c-.2,0-.2,0-.2.1v9.2h.7c2.3,0,3.5-1.7,3.5-3.7s.5,0,.5,0v8c0,0-.5,0-.5,0,0-2-1.2-3.7-3.5-3.7h-.7v9.8c0,0,0,.1.2.1h2.8c4.6,0,6.4-3.1,6.4-6.1s.5,0,.5,0v6.6c0,0,0,0,0,0Z"/>
        <path class="st0" d="M462.9,81c0,0-.1,0-.1.1v14.1c0,4.1-2,6.7-6.8,6.7s-7.2-2-7.2-6.5v-14.4c0,0,0-.1-.2-.1h-2.5c0,0,0-.6,0-.6h9c0,0,0,.6,0,.6h-2.5c-.1,0-.2,0-.2.1v14.4c0,3.7,1.2,5.6,4.2,5.6s5.5-2.4,5.5-5.9v-14.1c0,0,0-.1-.2-.1h-2.4c0,0,0-.6,0-.6h5.8c0,0,0,.6,0,.6h-2.5Z"/>
        <path class="st0" d="M485.6,87.4c0-3.4-1.8-6.4-5.9-6.4h-.3c-.1,0-.2,0-.2.1v19.6c0,0,0,.1.2.1h2.5c0,0,0,.6,0,.6h-9c0,0,0-.6,0-.6h2.5c.1,0,.2,0,.2-.1v-19.6c0,0,0-.1-.2-.1h-.3c-4.1,0-5.7,3-5.7,6.4s-.5,0-.5,0v-6.9s0,0,0,0h17c0,0,0,0,0,0v6.9c0,0-.5,0-.5,0Z"/>
        <path class="st0" d="M502,101.4c0,0,0-.6,0-.6h2.2c0,0,.1,0,.1-.1v-9.9h-7v9.9c0,0,0,.1.2.1h2.2c0,0,0,.6,0,.6h-8.8s0-.6,0-.6h2.5c0,0,.1,0,.1-.1v-19.6c0,0,0-.1-.1-.1h-2.5s0-.6,0-.6h8.8c0,0,0,.6,0,.6h-2.2c-.1,0-.2,0-.2.1v9.1h7v-9.1c0,0,0-.1-.1-.1h-2.2c0,0,0-.6,0-.6h8.8c0,0,0,.6,0,.6h-2.5c-.1,0-.1,0-.1.1v19.6c0,0,0,.1.1.1h2.5c0,0,0,.6,0,.6h-8.8Z"/>
      </g>
    </g>
    <g>
      <path class="st0" d="M70.3,80.7h34v1.6h-11.7l23.3,65.5h.2l15-41.7-8.6-23.8h-9.5v-1.6h33.9v1.6h-12.3l23.3,65.5h.2l21.4-65.5h1.9l-26.9,80.5h-2.8l-19.4-54.2h-.2l-19.6,54.2h-3l-28.8-80.5h-10.2v-1.6Z"/>
      <polygon class="st0" points="266.7 161.1 246.6 82.3 259.3 82.3 259.3 80.7 233.9 80.7 211.6 143.1 211.4 143.1 191 80.7 165.1 80.7 165.1 82.3 177.9 82.3 179.4 82.3 194.4 126 206.6 163.7 234.8 83 235 83 255.2 161.1 242.4 161.1 242.4 162.8 279.5 162.8 279.5 161.1 266.7 161.1"/>
      <path class="st0" d="M2,161.1h12.8v-78.8H2v-1.6h21.9c.9,0,1.8,0,2.8,0,.9,0,1.8,0,2.8-.2.9,0,1.8,0,2.8,0,.9,0,1.8,0,2.8,0,4.5,0,8.5.2,12,.7,3.5.5,6.7,1.9,9.7,4.3,2.7,2.1,4.6,4.4,5.7,7,1.1,2.6,1.7,5.1,1.7,7.4s-.2,2.6-.6,4.4c-.4,1.8-1.3,3.7-2.8,5.5-1.4,1.9-3.5,3.6-6.2,5.2-2.7,1.6-6.3,2.6-10.7,3.2v.2c1.2.2,2.9.5,5,.9,2.1.4,4.3,1.1,6.5,2.1,2.2,1,4.2,2.3,6.1,4,1.8,1.7,3.1,3.8,3.9,6.4.5,1.5.8,3.3,1,5.2.2,2,.3,4,.5,6.1.1,2.1.2,4.1.3,6,.1,1.9.3,3.5.6,4.8.5,2,1.2,3.8,2.2,5.4,1,1.6,2.6,2.4,4.8,2.4s2-.2,3.1-.6c1.1-.4,2-1,2.9-1.8l1,1.3c-.4.3-.8.6-1.3,1-.5.3-1.1.7-1.9,1-.8.3-1.7.6-2.8.8-1.1.2-2.5.3-4.1.3-3.1,0-5.6-.4-7.7-1.2-2-.8-3.7-1.9-4.9-3.4-1.2-1.5-2.1-3.3-2.7-5.5-.6-2.2-1-4.7-1.2-7.7l-.8-10.5c-.3-3.8-1.1-6.8-2.3-9-1.2-2.1-2.7-3.7-4.3-4.7-1.7-1-3.4-1.6-5.1-1.8-1.8-.2-3.3-.3-4.6-.3h-11.5v41.6h12.8v1.6H2v-1.6ZM26.3,117.9h10.6c2.1,0,4.1-.3,5.9-.8,1.8-.5,3.3-1.5,4.5-2.8,1.3-1.3,2.2-3.2,2.9-5.5.7-2.3,1-5.2,1-8.8s-.5-7.2-1.6-9.6c-1-2.4-2.4-4.2-4-5.5-1.7-1.2-3.5-2-5.5-2.4-2-.4-4.1-.6-6.1-.6s-2.8,0-4.2,0c-1.4,0-2.6.1-3.6.3v35.6Z"/>
    </g>
  </g>
  <g>
    <g>
      <path class="st0" d="M451.2,10.7c0-4.4-1-5.7-3-5.7s-3,1.1-3,2.5c1.2-.1,1.9.8,1.9,1.6s-.7,1.6-1.7,1.6-1.7-.9-1.7-2.1c0-2.7,2-4.4,4.8-4.4,4,0,6.6,1.5,6.6,5.7s-2.1,5.1-4.5,8.2l-4.1,5.4h8.1s.4-2,.4-3.6.1-.4.4-.4.4.2.4.4c0,.4-.4,2.3-.4,4.2v2.7c0,.3-.1.5-.3.5-.3,0-1.2-.1-1.9-.1h-9.3c-.7,0-.9-.5-.5-1.1l5-7.1c2-2.8,2.7-5.8,2.7-8.2Z"/>
      <path class="st0" d="M467.6,27.4c-4.2,0-6.6-4.7-6.6-11.6s2.5-11.7,6.6-11.7,6.6,4.7,6.6,11.7-2.5,11.6-6.6,11.6ZM467.6,5c-1.8,0-2.6,2.8-2.6,10.8s.7,10.8,2.6,10.8,2.5-2.8,2.5-10.8-.7-10.8-2.5-10.8Z"/>
      <path class="st0" d="M486.3,10.7c0-4.4-1-5.7-3-5.7s-3,1.1-3,2.5c1.2-.1,1.9.8,1.9,1.6s-.7,1.6-1.7,1.6-1.7-.9-1.7-2.1c0-2.7,2-4.4,4.8-4.4,4,0,6.6,1.5,6.6,5.7s-2.1,5.1-4.5,8.2l-4.1,5.4h8.1s.4-2,.4-3.6.1-.4.4-.4.4.2.4.4c0,.4-.4,2.3-.4,4.2v2.7c0,.3-.1.5-.3.5-.3,0-1.2-.1-1.9-.1h-9.3c-.7,0-.9-.5-.5-1.1l5-7.1c2-2.8,2.7-5.8,2.7-8.2Z"/>
      <path class="st0" d="M502.9,27.4c-2.7,0-6.6-1.8-6.6-9s5.2-13.5,10.7-14.4c.6,0,.9.6,0,.8-2.6.5-5.5,4.1-6.4,11,.4-.6,1.4-1.2,3-1.2,2.6,0,5.9,2.2,5.9,6.4s-2.9,6.4-6.6,6.4ZM503.1,15.5c-2.1,0-2.9,1.7-2.9,4.7,0,4.8.9,6.5,2.7,6.5s2.6-1.4,2.6-5.7-.7-5.5-2.4-5.5Z"/>
    </g>
    <g>
      <path class="st0" d="M80.2,27.1c-.4,0-1.1-.1-3.2-.1h-2.3c-2.2,0-2.8.1-3.2.1s-.3-.1-.3-.4.1-.4.3-.4h2.5V5h-2.5c-.2,0-.3-.1-.3-.4s.1-.4.3-.4,2.7.1,4,.1,1.6-.1,1.9-.1.3.1.3.4v21.7h2.5c.2,0,.3.1.3.4s-.1.4-.3.4Z"/>
      <path class="st0" d="M87.4,27.5c-.6.1-.9-.6,0-.8,2.6-.5,5.5-4.1,6.4-10.9-.4.6-1.4,1.1-3,1.1-2.7,0-6-2.2-6-6.4s3-6.4,6.6-6.4,6.6,1.8,6.6,8.9-5.1,13.6-10.6,14.4ZM91.4,4.9c-2.3,0-2.6,1.4-2.6,5.7s.7,5.5,2.4,5.5,2.9-1.7,2.9-4.7c0-4.8-.9-6.5-2.7-6.5Z"/>
      <path class="st0" d="M106.4,24.4c0-1.6.5-2.9,1.5-5.3l4.8-11h-8.4s-.4,2-.4,3.6-.1.4-.4.4-.4-.2-.4-.4c0-.4.4-2.3.4-4.2v-2.8c0-.2.1-.4.3-.4.3,0,1.3.1,1.9.1h8.6s0-.2,0-.2c.2-.6,1.1-.4.8.3l-6.4,14.9c-1,2.4-1.4,3.3-1.4,4.9s.4,1.9,1.4,2.1c-.2-.2-.4-.6-.4-1.1,0-.9.8-1.6,1.7-1.6s1.7.7,1.7,1.6-1.1,2-2.5,2-2.9-1-2.9-3.1Z"/>
      <path class="st0" d="M124.1,27.4c-2.7,0-6.6-1.8-6.6-9s5.2-13.5,10.7-14.4c.6,0,.9.6,0,.8-2.6.5-5.5,4.1-6.4,11,.4-.6,1.4-1.2,3-1.2,2.6,0,5.9,2.2,5.9,6.4s-2.9,6.4-6.6,6.4ZM124.4,15.5c-2.1,0-2.9,1.7-2.9,4.7,0,4.8.9,6.5,2.7,6.5s2.6-1.4,2.6-5.7-.7-5.5-2.4-5.5Z"/>
    </g>
    <g>
      <path class="st0" d="M225.4,20.2c0-4.8-.9-6.3-3.5-6.3s-2.6,1-3.1,1-.5-.1-.5-.5.3-.6.9-.8V5.2c0-.6.2-.8.7-.8h5.8c2.2,0,2.3-.6,2.3-2.5s.2-.5.4-.5.5.2.5.5c0,.5-.4,1.5-.7,3-.4,2.8-.6,3.2-2.4,3.2h-5.7s0,5.3,0,5.3c.8-.1,1.4-.2,2-.2,5.4,0,7.2,4.1,7.2,7.1s-2.8,7.1-6.9,7.1-5.2-1.5-5.2-4.1.8-2.1,1.8-2.1,1.6.7,1.6,1.6-.7,1.6-2,1.6c.4,1.1,1.7,2.2,3.7,2.2s3-1.6,3-6.3Z"/>
      <path class="st0" d="M241.2,27.4c-4.2,0-6.6-4.7-6.6-11.6s2.5-11.7,6.6-11.7,6.6,4.7,6.6,11.7-2.5,11.6-6.6,11.6ZM241.2,5c-1.8,0-2.6,2.8-2.6,10.8s.7,10.8,2.6,10.8,2.5-2.8,2.5-10.8-.7-10.8-2.5-10.8Z"/>
      <path class="st0" d="M261.3,32.2c-2.3,0-3.3-1.3-3.3-2.4s.6-1.7,1.6-1.7,1.6.7,1.6,1.5-.5,1.2-1.2,1.4c.3.3.7.4,1.2.4.7,0,1.3-.2,1.3-2.5V5h-2.5c-.2,0-.3-.1-.3-.4s.1-.4.3-.4c.4,0,1.1.1,3.3.1h2.3c2.1,0,2.8-.1,3.3-.1s.3.1.3.4-.2.4-.3.4h-2.5v21.4c0,4.3-2,5.8-4.9,5.8Z"/>
      <path class="st0" d="M274.7,26.4h3c.1,0,.3.1.3.4s-.2.4-.3.4c-.4,0-1.1-.1-3.3-.1h-.1c-2.2,0-2.8.1-3.3.1s-.3-.1-.3-.4.2-.4.3-.4h2.7l7.8-22.2c.1-.2.1-.3.4-.3s.3.1.4.3l7.6,22.2h2.5c.1,0,.3.1.3.4s-.2.4-.3.4c-.4,0-1.1-.1-3.3-.1h-2.3c-2.1,0-2.8.1-3.3.1s-.3-.1-.3-.4.1-.4.3-.4h2.3l-2.2-6.5h-6.6l-2.3,6.5ZM280.4,10.3l-3.1,8.7h6l-2.9-8.7Z"/>
      <path class="st0" d="M302.8,26.4h1.9c.2,0,.3.1.3.4s-.1.4-.3.4c-.4,0-.6-.1-2.7-.1h-2.3c-2.2,0-2.8.1-3.3.1s-.3-.1-.3-.4.1-.4.3-.4h2.5V5h-2.5c-.2,0-.3-.1-.3-.4s.1-.4.3-.4c.4,0,1.1.1,3.3.1h2.3c2.1,0,2.3-.1,2.7-.1s.3.1.3.4-.1.4-.3.4h-1.9v9.9h6.2V5h-1.9c-.1,0-.3-.1-.3-.4s.2-.4.3-.4c.4,0,.6.1,2.7.1h2.3c2.1,0,2.8-.1,3.3-.1s.3.1.3.4-.2.4-.3.4h-2.5v21.4h2.5c.1,0,.3.1.3.4s-.2.4-.3.4c-.4,0-1.1-.1-3.3-.1h-2.3c-2.2,0-2.3.1-2.7.1s-.3-.1-.3-.4.2-.4.3-.4h1.9v-10.6h-6.2v10.6Z"/>
      <path class="st0" d="M335.6,25.2c0,.7.3,1.5,1,1.5s1-.4,1-1.2.2-.5.5-.5.5.2.5.5c0,1.1-1,1.8-2.3,1.8-3,0-4.5-1.4-4.5-6.1s.4-5.4-2.8-5.4h-2.1v10.6h2.5c.1,0,.3.1.3.4s-.2.4-.3.4c-.4,0-1.1-.1-3.3-.1h-2.3c-2.2,0-2.8.1-3.3.1s-.3-.1-.3-.4.1-.4.3-.4h2.5V5h-2.5c-.2,0-.3-.1-.3-.4s.1-.4.3-.4c.4,0,1.1.1,3.3.1s2.5,0,3.8,0c5.3,0,7.8,2.4,7.8,5.4s-2.2,4.4-4.3,5c3.2.6,4.7,3,4.7,6.3s-.2,3.1-.2,4ZM331.2,9.7c0-3.3-.7-4.6-3.2-4.6h-1.2v9.8h1c2.2,0,3.4-1.1,3.4-5.2Z"/>
      <path class="st0" d="M356.8,4.1c.2,0,.3.2.3.5v1.1c0,1.5.2,3.9.2,4.2s-.1.4-.4.4-.4-.2-.4-.4c0-2.9-1-4.8-3-4.8h-4.4v9.8h2.4c1.2,0,1.9-1,1.9-2.9s0-.4.3-.4.3.2.3.4c0,.3,0,1,0,3.3s0,3,0,3.3,0,.4-.3.4-.3-.2-.3-.4c0-1.9-.8-2.9-1.9-2.9h-2.4v10.5h5.3c2,0,3-1.8,3-4.8s.1-.4.4-.4.4.2.4.4c0,.4-.1,2.8-.1,4.2v1.1c0,.3-.2.5-.3.5-.3,0-1.3-.1-1.9-.1h-9.8c-2.2-.1-2.8,0-3.3,0s-.3-.1-.3-.4.1-.4.3-.4h2.5V5h-2.5c-.2,0-.3-.1-.3-.4s.1-.4.3-.4c.4,0,1.1.1,3.3.1h9c.6,0,1.6-.2,1.9-.2Z"/>
    </g>
    <path class="st0" d="M205.9,15.8h-64.7c-.3,0-.5-.2-.5-.5s.2-.5.5-.5h64.7c.3,0,.5.2.5.5s-.2.5-.5.5Z"/>
    <path class="st0" d="M436.5,15.8h-71.1c-.3,0-.5-.2-.5-.5s.2-.5.5-.5h71.1c.3,0,.5.2.5.5s-.2.5-.5.5Z"/>
  </g>
</svg>